<svg height="512" viewBox="0 0 64 64" width="512" xmlns="http://www.w3.org/2000/svg"><g id="Cooking-food-kitchen"><path d="m23.45 14.01a3 3 0 1 1 -5.44 2.54l-.42-.91 5.44-2.53z" fill="#ff9811"/><path d="m20.8 4.61 2.23 8.5-5.44 2.53-5.08-7.17a1.994 1.994 0 0 1 .79-2.96l4.72-2.2a2 2 0 0 1 2.78 1.3z" fill="#f7afd1"/><path d="m55 22v8.93c-3.83-.25-4.16-1.89-8.6-1.89-4.81 0-4.81 1.92-9.61 1.92s-4.8-1.92-9.59-1.92-4.8 1.92-9.6 1.92c-4.44 0-4.77-1.64-8.6-1.89v-7.07z" fill="#bdfdff"/><path d="m10 58h44v3h-44z" fill="#006468"/><g fill="#ff9811"><path d="m11 55h10v3h-10z"/><path d="m27 55h10v3h-10z"/><path d="m43 55h10v3h-10z"/></g><path d="m19 52a3 3 0 0 1 -6 0c0-1.66 3-5 3-5s3 3.34 3 5z" fill="#ffda44"/><path d="m35 52a3 3 0 0 1 -6 0c0-1.66 3-5 3-5s3 3.34 3 5z" fill="#ffda44"/><path d="m51 52a3 3 0 0 1 -6 0c0-1.66 3-5 3-5s3 3.34 3 5z" fill="#ffda44"/><path d="m51 43h-38a4 4 0 0 1 -4-4v-9.93c3.83.25 4.16 1.89 8.6 1.89 4.8 0 4.8-1.92 9.6-1.92s4.79 1.92 9.59 1.92 4.8-1.92 9.61-1.92c4.44 0 4.77 1.64 8.6 1.89v8.07a4 4 0 0 1 -4 4z" fill="#ff7956"/><path d="m24.36 13.59-.39-.82-2.2-8.41a3 3 0 0 0 -4.17-1.96l-4.72 2.2a3 3 0 0 0 -1.18 4.45l5.02 7.1.39.82a3.981 3.981 0 0 0 2.25 2.07 4.077 4.077 0 0 0 1.37.24 4 4 0 0 0 3.63-5.69zm-6.43.79-4.6-6.48a.966.966 0 0 1 -.15-.84.956.956 0 0 1 .54-.65l4.72-2.2a1 1 0 0 1 .42-.09 1.065 1.065 0 0 1 .43.09.992.992 0 0 1 .54.65l2.02 7.7zm4.68 1.58a1.947 1.947 0 0 1 -1.03 1.13 1.984 1.984 0 0 1 -1.53.07 2.006 2.006 0 0 1 -1.13-1.03l3.62-1.69a1.957 1.957 0 0 1 .07 1.52z"/><path d="m60 23h-4v-1a1 1 0 0 0 -1-1h-46a1 1 0 0 0 -1 1v1h-4a2.006 2.006 0 0 0 -2 2v5a5 5 0 0 0 5 5h1v4a5 5 0 0 0 5 5h38a5 5 0 0 0 5-5v-4h1a5 5 0 0 0 5-5v-5a2.006 2.006 0 0 0 -2-2zm-52 5.04v4.96h-1a3.009 3.009 0 0 1 -3-3v-5h4zm46 5.96v5a3.009 3.009 0 0 1 -3 3h-38a3.009 3.009 0 0 1 -3-3v-8.809a10.909 10.909 0 0 1 2.427.737 12.02 12.02 0 0 0 5.173 1.032 12.05 12.05 0 0 0 5.171-1.031 10.208 10.208 0 0 1 4.429-.889 10.211 10.211 0 0 1 4.428.889 12.036 12.036 0 0 0 5.169 1.031 12.054 12.054 0 0 0 5.173-1.031 10.215 10.215 0 0 1 4.43-.889 10.22 10.22 0 0 1 4.431.889 12.387 12.387 0 0 0 3.173.9zm0-10v5.809a10.861 10.861 0 0 1 -2.431-.738 12.05 12.05 0 0 0 -5.169-1.031 12.048 12.048 0 0 0 -5.172 1.031 10.223 10.223 0 0 1 -4.431.889 10.227 10.227 0 0 1 -4.427-.888 12.02 12.02 0 0 0 -5.17-1.032 12.05 12.05 0 0 0 -5.171 1.031 10.208 10.208 0 0 1 -4.428.889 10.211 10.211 0 0 1 -4.428-.889 12.327 12.327 0 0 0 -3.173-.901v-5.17h44zm6 6a3.009 3.009 0 0 1 -3 3h-1v-8h4z"/><path d="m54 57v-2a1 1 0 0 0 -1-1h-1.56a3.906 3.906 0 0 0 .56-2c0-1.94-2.71-5.06-3.26-5.67a1.027 1.027 0 0 0 -1.48 0c-.55.61-3.26 3.73-3.26 5.67a3.906 3.906 0 0 0 .56 2h-1.56a1 1 0 0 0 -1 1v2h-4v-2a1 1 0 0 0 -1-1h-1.56a3.906 3.906 0 0 0 .56-2c0-1.94-2.71-5.06-3.26-5.67a1.027 1.027 0 0 0 -1.48 0c-.55.61-3.26 3.73-3.26 5.67a3.906 3.906 0 0 0 .56 2h-1.56a1 1 0 0 0 -1 1v2h-4v-2a1 1 0 0 0 -1-1h-1.56a3.906 3.906 0 0 0 .56-2c0-1.94-2.71-5.06-3.26-5.67a1.027 1.027 0 0 0 -1.48 0c-.55.61-3.26 3.73-3.26 5.67a3.906 3.906 0 0 0 .56 2h-1.56a1 1 0 0 0 -1 1v2a1 1 0 0 0 -1 1v3a1 1 0 0 0 1 1h44a1 1 0 0 0 1-1v-3a1 1 0 0 0 -1-1zm-6-8.45c1.06 1.33 2 2.83 2 3.45a2 2 0 0 1 -4 0c0-.64.94-2.13 2-3.45zm-4 7.45h8v1h-8zm-12-7.45c1.06 1.33 2 2.83 2 3.45a2 2 0 0 1 -4 0c0-.64.94-2.13 2-3.45zm-4 7.45h8v1h-8zm-12-7.45c1.06 1.33 2 2.83 2 3.45a2 2 0 0 1 -4 0c0-.64.94-2.13 2-3.45zm-4 7.45h8v1h-8zm41 4h-42v-1h42z"/><path d="m16 35h2v2h-2z"/><path d="m22 38h2v2h-2z"/><path d="m27 33h2v2h-2z"/><path d="m35 37h2v2h-2z"/><path d="m45 32h2v2h-2z"/><path d="m42 38h2v2h-2z"/><path d="m32 16.5a1.5 1.5 0 0 1 1.5-1.5 3.5 3.5 0 0 0 3.5-3.5v-1.5h-2v1.5a1.5 1.5 0 0 1 -1.5 1.5 3.5 3.5 0 0 0 -3.5 3.5v.5h2z"/><path d="m40 16.5a1.5 1.5 0 0 1 1.5-1.5 3.5 3.5 0 0 0 3.5-3.5v-1.5h-2v1.5a1.5 1.5 0 0 1 -1.5 1.5 3.5 3.5 0 0 0 -3.5 3.5v.5h2z"/><path d="m48 16.5a1.5 1.5 0 0 1 1.5-1.5 3.5 3.5 0 0 0 3.5-3.5v-1.5h-2v1.5a1.5 1.5 0 0 1 -1.5 1.5 3.5 3.5 0 0 0 -3.5 3.5v.5h2z"/></g></svg>